<svg xmlns="http://www.w3.org/2000/svg" xmlns:xlink="http://www.w3.org/1999/xlink" xmlns:lucid="lucid" width="1156" height="1012"><g transform="translate(-204 -133)" lucid:page-tab-id=".Q4MUjXso07N"><path d="M0 0h1360v1760H0z" fill="#fff"/><path d="M402.78 165c0-2.76 2.24-5 5-5H1135c2.76 0 5 2.24 5 5v950c0 2.76-2.24 5-5 5H407.78c-2.76 0-5-2.24-5-5z" stroke="#333" fill-opacity="0"/><use xlink:href="#a" transform="matrix(1,0,0,1,410.7771404371331,168) translate(304.98148148148147 15.11111111111111)"/><path d="M306.22 489.75c0 10.9-8.84 19.75-19.75 19.75-10.9 0-19.75-8.84-19.75-19.75 0-10.9 8.84-19.75 19.75-19.75 10.9 0 19.75 8.84 19.75 19.75z" stroke="#333" fill="#fff"/><path d="M286.47 509.5v50.3c0 2.76 1.2 6.9 2.67 9.22L326.47 628m-40-63.2l-40 63.2m0-98.75h80" stroke="#333" fill="none"/><path d="M246.47 475c0-2.76 2.24-5 5-5h70c2.76 0 5 2.24 5 5v170c0 2.76-2.24 5-5 5h-70c-2.76 0-5-2.24-5-5z" fill="none"/><use xlink:href="#b" transform="matrix(1,0,0,1,166.46954966781595,627.9989633254834) translate(97.30864197530863 14.888888888888888)"/><path d="M1276.06 479.75c0 10.9-8.84 19.75-19.75 19.75-10.9 0-19.74-8.84-19.74-19.75 0-10.9 8.84-19.75 19.75-19.75 10.92 0 19.76 8.84 19.76 19.75z" stroke="#333" fill="#fff"/><path d="M1256.3 499.5v50.3c0 2.76 1.2 6.9 2.68 9.22L1296.3 618m-40-63.2l-40 63.2m0-98.75h80" stroke="#333" fill="none"/><path d="M1216.3 465c0-2.76 2.25-5 5-5h70c2.77 0 5 2.24 5 5v170c0 2.76-2.23 5-5 5h-70c-2.75 0-5-2.24-5-5z" fill="none"/><use xlink:href="#c" transform="matrix(1,0,0,1,1136.3075907693171,618) translate(105.67901234567901 14.888888888888888)"/><path d="M253.15 119.16c0-4.42 3.58-8 8-8h837.7c4.42 0 8 3.58 8 8V122c0 4.42-3.58 8-8 8h-837.7c-4.42 0-8-3.58-8-8z" stroke="#000" stroke-opacity="0" stroke-width="2" fill="#fff" fill-opacity="0"/><use xlink:href="#d" transform="matrix(1,0,0,1,273.1465527853436,111.15522395684805) translate(303.49086419753087 14.917037037037037)"/><use xlink:href="#e" transform="matrix(1,0,0,1,273.1465527853436,111.15522395684805) translate(388.3853086419753 14.917037037037037)"/><use xlink:href="#f" transform="matrix(1,0,0,1,273.1465527853436,111.15522395684805) translate(400.8347942386831 14.917037037037037)"/><use xlink:href="#g" transform="matrix(1,0,0,1,273.1465527853436,111.15522395684805) translate(466.1414814814815 14.917037037037037)"/><use xlink:href="#h" transform="matrix(1,0,0,1,273.1465527853436,111.15522395684805) translate(483.137366255144 14.917037037037037)"/><path d="M286.47 469.5" stroke="#333" fill="none"/><path fill="#333"/><path fill="#333"/><path d="M1276.06 779.75c0 10.9-8.84 19.75-19.75 19.75-10.9 0-19.74-8.84-19.74-19.75 0-10.9 8.84-19.75 19.75-19.75 10.92 0 19.76 8.84 19.76 19.75z" stroke="#333" fill="#fff"/><path d="M1256.3 799.5v50.3c0 2.76 1.2 6.9 2.68 9.22L1296.3 918m-40-63.2l-40 63.2m0-98.75h80" stroke="#333" fill="none"/><path d="M1216.3 765c0-2.76 2.25-5 5-5h70c2.77 0 5 2.24 5 5v170c0 2.76-2.23 5-5 5h-70c-2.75 0-5-2.24-5-5z" fill="none"/><use xlink:href="#i" transform="matrix(1,0,0,1,1136.3075907693171,918) translate(85.1358024691358 14.888888888888888)"/><path d="M620 360c0 33.14-35.82 60-80 60s-80-26.86-80-60 35.82-60 80-60 80 26.86 80 60z" stroke="#333" fill="#fff"/><use xlink:href="#j" transform="matrix(1,0,0,1,484,324) translate(28.799999999999997 27.46666666666667)"/><use xlink:href="#k" transform="matrix(1,0,0,1,484,324) translate(29.955555555555552 53.06666666666667)"/><path d="M620 520c0 33.14-35.82 60-80 60s-80-26.86-80-60 35.82-60 80-60 80 26.86 80 60z" stroke="#333" fill="#fff"/><use xlink:href="#j" transform="matrix(1,0,0,1,484,484) translate(28.799999999999997 27.46666666666667)"/><use xlink:href="#l" transform="matrix(1,0,0,1,484,484) translate(15.140740740740739 53.06666666666667)"/><path d="M620 680c0 33.14-35.82 60-80 60s-80-26.86-80-60 35.82-60 80-60 80 26.86 80 60z" stroke="#333" fill="#fff"/><use xlink:href="#m" transform="matrix(1,0,0,1,484,644) translate(21.718518518518515 27.46666666666667)"/><use xlink:href="#n" transform="matrix(1,0,0,1,484,644) translate(30.548148148148144 53.06666666666667)"/><path d="M620 1000c0 33.14-35.82 60-80 60s-80-26.86-80-60 35.82-60 80-60 80 26.86 80 60z" stroke="#333" fill="#fff"/><use xlink:href="#o" transform="matrix(1,0,0,1,484,964) translate(24.68148148148148 27.46666666666667)"/><use xlink:href="#p" transform="matrix(1,0,0,1,484,964) translate(26.962962962962962 53.06666666666667)"/><path d="M326.97 528.75h54c6.64 0 12-5.37 12-12V372c0-6.63 5.4-12 12-12H459" stroke="#333" fill="none"/><path d="M326.98 529.25h-.5v-.5h-3v-.5h3.5zM459.5 360v.5h-.5v-1h.52z" fill="#333"/><path d="M326.97 528.75h132.87" stroke="#333" fill="none"/><path d="M326.98 529.25h-.5v-.5h-3v-.5h3.5zM460.38 529l.06.25h-.6v-1h.42z" fill="#333"/><path d="M326.97 528.75h54c6.64 0 12 5.37 12 12V668c0 6.63 5.4 12 12 12H459" stroke="#333" fill="none"/><path d="M326.98 529.25h-.5v-.5h-3v-.5h3.5zM459.5 680v.5h-.5v-1h.52z" fill="#333"/><path d="M326.97 528.75h54c6.64 0 12 5.37 12 12V988c0 6.63 5.4 12 12 12H459" stroke="#333" fill="none"/><path d="M326.98 529.25h-.5v-.5h-3v-.5h3.5zM459.5 1000v.5h-.5v-1h.52z" fill="#333"/><path d="M1020 280c0 33.14-35.82 60-80 60s-80-26.86-80-60 35.82-60 80-60 80 26.86 80 60z" stroke="#333" fill="#fff"/><use xlink:href="#q" transform="matrix(1,0,0,1,884,244) translate(0.25 39.6)"/><use xlink:href="#r" transform="matrix(1,0,0,1,884,244) translate(59.75 39.6)"/><path d="M1020 440c0 33.14-35.82 60-80 60s-80-26.86-80-60 35.82-60 80-60 80 26.86 80 60z" stroke="#333" fill="#fff"/><use xlink:href="#s" transform="matrix(1,0,0,1,884,404) translate(2.625 28.799999999999997)"/><use xlink:href="#t" transform="matrix(1,0,0,1,884,404) translate(52.47500000000001 28.799999999999997)"/><use xlink:href="#u" transform="matrix(1,0,0,1,884,404) translate(89.375 28.799999999999997)"/><use xlink:href="#v" transform="matrix(1,0,0,1,884,404) translate(37.05 50.4)"/><path d="M621.3 339.64h-5.22v-1h5.2zm15.63 0H626.5v-1h10.43zm15.63 0h-10.42v-1h10.42zm15.64 0h-10.42v-1h10.42zm15.64 0H673.4v-1h10.44zm15.64 0h-10.43v-1h10.43zm15.63 0h-10.4v-1h10.4zm16.62-1.64l-2.94 1.22-3.2.42h-5.25v-1h5.18l3.02-.4 2.82-1.16zm6.32-10.83l-.42 3.22-1.23 2.93-.93-.38 1.17-2.83.4-3v-5.84h1zm1.56-40.97l-1.17 2.82-.4 3v5.84h-1v-5.9l.43-3.2 1.22-2.94zm15.13-5.7h-5.16l-3 .4-2.84 1.17-.38-.92 2.94-1.23 3.2-.42h5.23zm15.58 0h-10.38v-1h10.4zm15.6 0h-10.4v-1h10.4zm15.57 0h-10.4v-1h10.4zm15.58 0h-10.4v-1h10.4zm15.58 0h-10.4v-1h10.4zm15.57 0h-10.38v-1h10.38zm10.4 0h-5.2v-1h5.2z" fill="#333"/><path d="M616.1 339.64h-.27l-.05-.1-.46-.9h.77zM859.5 280l-17.94 10.6-.5-.85 16.48-9.75-16.5-9.75.52-.86z" fill="#333"/><use xlink:href="#w" transform="matrix(1,0,0,1,693.1387086475003,298.77087296473906) translate(0.005000000000002558 14.4)"/><path d="M859 440.5h-5.3v-1h5.3zm-10.58 0h-10.58v-1h10.58zm-15.87 0h-10.58v-1h10.58zm-15.87 0H806.1v-1h10.58zm-15.87 0h-10.57v-1h10.58zm-15.86 0h-10.57v-1h10.57zm-15.86 0H758.5v-1h10.58zm-24.15-1.4l3.02.4h5.26v1h-5.32l-3.2-.42-2.95-1.22.4-.92zm-8.5-11.13l.38 3 1.2 2.84-.94.4-1.22-2.96-.42-3.2v-3.96h1zM736 395.3l.42 3.22v3.96h-1v-3.9l-.4-3-1.17-2.83.93-.38zm-8.84-8.83l2.95 1.23-.37.92-2.83-1.17-3.02-.4h-5.23v-1h5.3zm-13.78.58h-10.54v-1h10.54zm-15.8 0h-10.55v-1h10.54zm-15.82 0h-10.54v-1h10.54zm-15.8 0H655.4v-1h10.55zm-15.83 0H639.6v-1h10.53zm-15.8 0h-10.55v-1h10.54zm-15.82 0h-5.26v-1h5.27zM859.5 440v.5h-.5v-1h.52z" fill="#333"/><path d="M630.8 376.8l-16.5 9.75 16.5 9.75-.52.86-17.95-10.6 17.95-10.62z" fill="#333"/><use xlink:href="#x" transform="matrix(1,0,0,1,679.9423247747894,402.4760530299139) translate(0.005000000000002558 14.4)"/><path d="M1215.8 519.75H621" stroke="#333" fill="none"/><path d="M1216.3 519.75h3v.5h-3.5v-1h.5zM621 520.25h-.5v-.64l-.02-.35h.53z" fill="#333"/><path d="M1215.8 520.25h-113.77l-3 .4-2.77 1.14-2.4 1.82-1.82 2.4-1.14 2.75-.4 3v456.26l-.42 3.2-1.24 3-2 2.6-2.6 2-3 1.25-3.2.42H621v-1h456.97l3-.4 2.77-1.14 2.4-1.83 1.82-2.4 1.14-2.75.4-3V531.7l.42-3.2 1.24-3 2-2.6 2.6-2 3-1.25 3.2-.42h113.85z" fill="#333"/><path d="M1216.3 519.75h3v.5h-3.5v-1h.5zM621 1000.5h-.52l.02-.5v-.5h.5zM1091.78 674.78l2.68 1.96.9 2.76h108.98l3.2.42 3 1.24 2.6 2 2 2.6 1.25 3 .4 3.2v127.1h-1V692.03l-.4-3-1.13-2.77-1.83-2.4-2.4-1.82-2.75-1.14-3.03-.4h-109.63l-1.03-3.14-2.22-1.63-1.34-.22-2.68.9-1.63 2.22-.3 1.88H621v-1h463.57l.2-1.28 1.97-2.68 3.22-1.05z" fill="#333"/><path d="M1216.3 819.75h.5v2.8h-1v-3.5h.5zM621 680.5h-.52l.02-.5v-.5h.5z" fill="#333"/><path d="M880 590c0 33.14-35.82 60-80 60s-80-26.86-80-60 35.82-60 80-60 80 26.86 80 60z" stroke="#333" fill="#fff"/><use xlink:href="#y" transform="matrix(1,0,0,1,744,553.9989633254834) translate(2.125 18)"/><use xlink:href="#z" transform="matrix(1,0,0,1,744,553.9989633254834) translate(71.925 18)"/><use xlink:href="#A" transform="matrix(1,0,0,1,744,553.9989633254834) translate(95.925 18)"/><use xlink:href="#B" transform="matrix(1,0,0,1,744,553.9989633254834) translate(0.5749999999999957 39.6)"/><use xlink:href="#C" transform="matrix(1,0,0,1,744,553.9989633254834) translate(52.525 39.6)"/><use xlink:href="#D" transform="matrix(1,0,0,1,744,553.9989633254834) translate(11.524999999999999 61.2)"/><path d="M1215.8 520.25H952.04l-3 .4-2.77 1.14-2.4 1.82-1.82 2.4-1.14 2.75-.4 3V649l-.42 3.2-1.24 3-2 2.6-2.6 2-3 1.25-3.2.42H616.9v-1h311.07l3-.4 2.77-1.14 2.4-1.83 1.82-2.4 1.14-2.75.4-3.02v-117.2l.42-3.22 1.24-3 2-2.6 2.6-2 3-1.23 3.2-.42h263.85z" fill="#333"/><path d="M1216.3 519.75h3v.5h-3.5v-1h.5zM616.92 661.47h-.3l-.43-1h.72zM676.4 589.1l3 .4h4.33v1h-4.4l-3.2-.42-2.95-1.23.4-.92zm20.4 1.4h-8.7v-1h8.7zm13.08 0h-8.72v-1h8.72zm8.7 0h-4.35v-1h4.36zm-50.7-12.53l.4 3 1.16 2.83-.93.38-1.2-2.94-.42-3.2v-1.5h1zm-.42-27.73l.42 3.2v1.5h-1v-1.42l-.4-3.02-1.17-2.83.93-.38zm-8.84-8.84l2.94 1.22-.38.92-2.82-1.16-3.02-.4h-4.37v-1h4.44zm-38.47.58h-4.4v-1h4.4zm13.2 0h-8.8v-1h8.8zm13.22 0h-8.8v-1h8.8z" fill="#333"/><path d="M615.77 541.98H615l.5-1h.27zM719.5 590l-17.94 10.6-.5-.85 16.48-9.75-16.5-9.75.52-.86z" fill="#333"/><g><use xlink:href="#w" transform="matrix(1,0,0,1,622.9761505543578,554.9407693532722) translate(0.005000000000002558 14.4)"/></g><path d="M620 840c0 33.14-35.82 60-80 60s-80-26.86-80-60 35.82-60 80-60 80 26.86 80 60z" stroke="#333" fill="#fff"/><g><use xlink:href="#E" transform="matrix(1,0,0,1,484,804) translate(3.9111111111111114 27.46666666666667)"/><use xlink:href="#F" transform="matrix(1,0,0,1,484,804) translate(-1.9851851851851805 53.06666666666667)"/></g><path d="M326.97 528.75h54c6.64 0 12 5.37 12 12V828c0 6.63 5.4 12 12 12H459" stroke="#333" fill="none"/><path d="M326.98 529.25h-.5v-.5h-3v-.5h3.5zM459.5 840v.5h-.5v-1h.52zM1215.8 520.25h-113.77l-3 .4-2.77 1.14-2.4 1.82-1.82 2.4-1.14 2.75-.4 3v143.6l-3.14 1.02-1.63 2.22-.22 1.34.9 2.68 2.22 1.63 1.88.3v161.9l-.42 3.2-1.24 3-2 2.6-2.6 2-3 1.24-3.2.43H617.16v-1h460.8l3-.4 2.77-1.14 2.4-1.84 1.82-2.4 1.14-2.75.4-3V685.43l-1.28-.2-2.68-1.97-1.05-3.22.28-1.82 1.96-2.68 2.76-.9V531.72l.42-3.2 1.24-3 2-2.6 2.6-2 3-1.25 3.2-.42h113.85zM1216.3 519.75h3v.5h-3.5v-1h.5z" fill="#333"/><path d="M617.2 858.93h-.74l.43-1h.3z" fill="#333"/><path d="M880 760c0 33.14-35.82 60-80 60s-80-26.86-80-60 35.82-60 80-60 80 26.86 80 60z" stroke="#333" fill="#fff"/><g><use xlink:href="#y" transform="matrix(1,0,0,1,744,724) translate(4.100000000000001 14.4)"/><use xlink:href="#z" transform="matrix(1,0,0,1,744,724) translate(73.9 14.4)"/><use xlink:href="#G" transform="matrix(1,0,0,1,744,724) translate(97.9 14.4)"/><use xlink:href="#H" transform="matrix(1,0,0,1,744,724) translate(1.5499999999999972 36)"/><use xlink:href="#I" transform="matrix(1,0,0,1,744,724) translate(50.5 36)"/><use xlink:href="#J" transform="matrix(1,0,0,1,744,724) translate(21 57.6)"/><use xlink:href="#K" transform="matrix(1,0,0,1,744,724) translate(62 57.6)"/><use xlink:href="#L" transform="matrix(1,0,0,1,744,724) translate(19.5 79.20000000000002)"/></g><path d="M612.4 807.02h-4.87v-1h4.86zm14.57 0h-9.72v-1h9.72zm14.57 0h-9.7v-1h9.7zm15.9-1.64l-2.93 1.22-3.2.42h-4.9v-1h4.83l3.02-.4 2.8-1.16zm6.32-10.83l-.42 3.22-1.22 2.94-.92-.37 1.17-2.83.4-3v-.44h1zm1.57-28.35l-1.17 2.82-.4 3v.44h-1v-.5l.42-3.2 1.22-2.94zm14.75-5.7h-4.78l-3.02.4-2.82 1.17-.4-.92 2.96-1.23 3.2-.42h4.86zm14.44 0h-9.63v-1h9.62zm14.44 0h-9.63v-1h9.63zm9.63 0h-4.82v-1h4.8z" fill="#333"/><path d="M607.54 807.02l-.96-1h.96zM719.5 760l-17.94 10.6-.5-.85 16.48-9.75-16.5-9.75.52-.86z" fill="#333"/><g><use xlink:href="#w" transform="matrix(1,0,0,1,618.8637787356006,772.4604914848144) translate(0.005000000000002558 14.4)"/></g><defs><path fill="#333" d="M183 0l-10-63H79L44 0H-7l138-248h61L234 0h-51zm-14-102l-15-108c-16 38-36 73-55 108h70" id="M"/><path fill="#333" d="M212 0l43-212L151 0h-37L90-212C82-137 65-70 52 0H6l48-248h70l20 187 93-187h69L258 0h-46" id="N"/><path fill="#333" d="M241-173c-1 82-78 91-166 86L58 0H6l48-248c87 0 188-12 187 75zm-53 2c0-43-48-36-90-36l-15 80c50 0 105 7 105-44" id="O"/><path fill="#333" d="M18-101c0-91 52-150 145-150 68 0 111 34 111 101C274-54 221 4 128 4 59 4 18-33 18-101zm202-32c4-46-15-77-59-77-65 0-88 46-91 108-2 41 22 65 60 65 60 0 84-40 90-96" id="P"/><path fill="#333" d="M258-177c0 46-32 67-71 75L235 0h-57l-41-94H76L58 0H6l48-248c89 2 204-19 204 71zm-53 3c0-46-63-30-107-33l-14 73c51-2 120 13 121-40" id="Q"/><path fill="#333" d="M6 0l48-248h52L66-40h133l-8 40H6" id="R"/><g id="a"><use transform="matrix(0.06172839506172839,0,0,0.06172839506172839,0,0)" xlink:href="#M"/><use transform="matrix(0.06172839506172839,0,0,0.06172839506172839,15.987654320987653,0)" xlink:href="#N"/><use transform="matrix(0.06172839506172839,0,0,0.06172839506172839,34.44444444444444,0)" xlink:href="#O"/><use transform="matrix(0.06172839506172839,0,0,0.06172839506172839,49.25925925925925,0)" xlink:href="#P"/><use transform="matrix(0.06172839506172839,0,0,0.06172839506172839,66.5432098765432,0)" xlink:href="#Q"/><use transform="matrix(0.06172839506172839,0,0,0.06172839506172839,82.53086419753086,0)" xlink:href="#M"/><use transform="matrix(0.06172839506172839,0,0,0.06172839506172839,98.51851851851852,0)" xlink:href="#R"/></g><path fill="#333" d="M187 0l-14-72H61L19 0h-37l149-248h38L221 0h-34zm-19-99l-22-123L76-99h92" id="S"/><path fill="#333" d="M6 0l50-261h32L37 0H6" id="T"/><path fill="#333" d="M67 3c-93-2-31-127-26-193h32L48-50c-3 39 53 32 70 12 30-34 30-101 43-152h32L157 0h-30c1-10 6-24 4-33-14 20-29 37-64 36" id="U"/><path fill="#333" d="M67-158c22-48 132-52 116 29L158 0h-32l25-140c3-38-53-32-70-12C52-117 51-52 38 0H6l36-190h30" id="V"/><path fill="#333" d="M30-147c31-64 166-65 159 27C183-49 158 1 86 4 9 8 1-88 30-147zM88-20c53 0 68-48 68-100 0-31-11-51-44-50-52 1-68 46-68 97 0 32 13 53 44 53" id="W"/><g id="b"><use transform="matrix(0.04938271604938272,0,0,0.04938271604938272,0,0)" xlink:href="#S"/><use transform="matrix(0.04938271604938272,0,0,0.04938271604938272,11.851851851851853,0)" xlink:href="#T"/><use transform="matrix(0.04938271604938272,0,0,0.04938271604938272,15.753086419753087,0)" xlink:href="#U"/><use transform="matrix(0.04938271604938272,0,0,0.04938271604938272,25.629629629629633,0)" xlink:href="#V"/><use transform="matrix(0.04938271604938272,0,0,0.04938271604938272,35.50617283950618,0)" xlink:href="#W"/></g><path fill="#333" d="M238-179c0 84-86 86-175 82L45 0H11l48-248c82 0 179-12 179 69zm-34 1c0-53-64-42-116-43l-19 98c63 0 135 9 135-55" id="X"/><path fill="#333" d="M14 0l48-248h34L48 0H14" id="Y"/><g id="c"><use transform="matrix(0.04938271604938272,0,0,0.04938271604938272,0,0)" xlink:href="#S"/><use transform="matrix(0.04938271604938272,0,0,0.04938271604938272,11.851851851851853,0)" xlink:href="#X"/><use transform="matrix(0.04938271604938272,0,0,0.04938271604938272,23.703703703703706,0)" xlink:href="#Y"/></g><path fill="#a9afb8" d="M210-169c-67 3-38 105-44 169h-31v-121c0-29-5-50-35-48C34-165 62-65 56 0H25l-1-190h30c1 10-1 24 2 32 10-44 99-50 107 0 11-21 27-35 58-36 85-2 47 119 55 194h-31v-121c0-29-5-49-35-48" id="Z"/><path fill="#a9afb8" d="M115-194c53 0 69 39 70 98 0 66-23 100-70 100C84 3 66-7 56-30L54 0H23l1-261h32v101c10-23 28-34 59-34zm-8 174c40 0 45-34 45-75 0-40-5-75-45-74-42 0-51 32-51 76 0 43 10 73 51 73" id="aa"/><path fill="#a9afb8" d="M135-143c-3-34-86-38-87 0 15 53 115 12 119 90S17 21 10-45l28-5c4 36 97 45 98 0-10-56-113-15-118-90-4-57 82-63 122-42 12 7 21 19 24 35" id="ab"/><path fill="#a9afb8" d="M96-169c-40 0-48 33-48 73s9 75 48 75c24 0 41-14 43-38l32 2c-6 37-31 61-74 61-59 0-76-41-82-99-10-93 101-131 147-64 4 7 5 14 7 22l-32 3c-4-21-16-35-41-35" id="ac"/><path fill="#a9afb8" d="M24-231v-30h32v30H24zM-9 49c24 4 33-6 33-30v-209h32V24c2 40-23 58-65 49V49" id="ad"/><g id="d"><use transform="matrix(0.04248971193415638,0,0,0.04248971193415638,0,0)" xlink:href="#Z"/><use transform="matrix(0.04248971193415638,0,0,0.04248971193415638,12.704423868312757,0)" xlink:href="#aa"/><use transform="matrix(0.04248971193415638,0,0,0.04248971193415638,21.20236625514403,0)" xlink:href="#ab"/><use transform="matrix(0.04248971193415638,0,0,0.04248971193415638,28.85051440329218,0)" xlink:href="#ac"/><use transform="matrix(0.04248971193415638,0,0,0.04248971193415638,36.498662551440326,0)" xlink:href="#aa"/><use transform="matrix(0.04248971193415638,0,0,0.04248971193415638,44.9966049382716,0)" xlink:href="#ab"/><use transform="matrix(0.04248971193415638,0,0,0.04248971193415638,52.64475308641975,0)" xlink:href="#ad"/><use transform="matrix(0.04248971193415638,0,0,0.04248971193415638,56.00144032921809,0)" xlink:href="#aa"/><use transform="matrix(0.04248971193415638,0,0,0.04248971193415638,64.49938271604937,0)" xlink:href="#ab"/></g><path fill="#a9afb8" d="M32 76v-337h29V76H32" id="ae"/><use transform="matrix(0.04248971193415638,0,0,0.04248971193415638,0,0)" xlink:href="#ae" id="e"/><path fill="#a9afb8" d="M63-220v92h138v28H63V0H30v-248h175v28H63" id="af"/><path fill="#a9afb8" d="M100-194c63 0 86 42 84 106H49c0 40 14 67 53 68 26 1 43-12 49-29l28 8c-11 28-37 45-77 45C44 4 14-33 15-96c1-61 26-98 85-98zm52 81c6-60-76-77-97-28-3 7-6 17-6 28h103" id="ag"/><path fill="#a9afb8" d="M114-163C36-179 61-72 57 0H25l-1-190h30c1 12-1 29 2 39 6-27 23-49 58-41v29" id="ah"/><path fill="#a9afb8" d="M84 4C-5 8 30-112 23-190h32v120c0 31 7 50 39 49 72-2 45-101 50-169h31l1 190h-30c-1-10 1-25-2-33-11 22-28 36-60 37" id="ai"/><path fill="#a9afb8" d="M141-36C126-15 110 5 73 4 37 3 15-17 15-53c-1-64 63-63 125-63 3-35-9-54-41-54-24 1-41 7-42 31l-33-3c5-37 33-52 76-52 45 0 72 20 72 64v82c-1 20 7 32 28 27v20c-31 9-61-2-59-35zM48-53c0 20 12 33 32 33 41-3 63-29 60-74-43 2-92-5-92 41" id="aj"/><path fill="#a9afb8" d="M179-190L93 31C79 59 56 82 12 73V49c39 6 53-20 64-50L1-190h34L92-34l54-156h33" id="ak"/><g id="f"><use transform="matrix(0.04248971193415638,0,0,0.04248971193415638,0,0)" xlink:href="#af"/><use transform="matrix(0.04248971193415638,0,0,0.04248971193415638,9.305246913580246,0)" xlink:href="#ag"/><use transform="matrix(0.04248971193415638,0,0,0.04248971193415638,17.80318930041152,0)" xlink:href="#aa"/><use transform="matrix(0.04248971193415638,0,0,0.04248971193415638,26.301131687242794,0)" xlink:href="#ah"/><use transform="matrix(0.04248971193415638,0,0,0.04248971193415638,31.357407407407408,0)" xlink:href="#ai"/><use transform="matrix(0.04248971193415638,0,0,0.04248971193415638,39.85534979423868,0)" xlink:href="#aj"/><use transform="matrix(0.04248971193415638,0,0,0.04248971193415638,48.35329218106995,0)" xlink:href="#ah"/><use transform="matrix(0.04248971193415638,0,0,0.04248971193415638,53.40956790123455,0)" xlink:href="#ak"/></g><path fill="#a9afb8" d="M155-56V0h-30v-56H8v-25l114-167h33v167h35v25h-35zm-30-156c-27 46-58 90-88 131h88v-131" id="al"/><path fill="#a9afb8" d="M68-38c1 34 0 65-14 84H32c9-13 17-26 17-46H33v-38h35" id="am"/><g id="g"><use transform="matrix(0.04248971193415638,0,0,0.04248971193415638,0,0)" xlink:href="#al"/><use transform="matrix(0.04248971193415638,0,0,0.04248971193415638,8.497942386831275,0)" xlink:href="#am"/></g><path fill="#a9afb8" d="M101-251c82-7 93 87 43 132L82-64C71-53 59-42 53-27h129V0H18c2-99 128-94 128-182 0-28-16-43-45-43s-46 15-49 41l-32-3c6-41 34-60 81-64" id="an"/><path fill="#a9afb8" d="M101-251c68 0 85 55 85 127S166 4 100 4C33 4 14-52 14-124c0-73 17-127 87-127zm-1 229c47 0 54-49 54-102s-4-102-53-102c-51 0-55 48-55 102 0 53 5 102 54 102" id="ao"/><path fill="#a9afb8" d="M27 0v-27h64v-190l-56 39v-29l58-41h29v221h61V0H27" id="ap"/><g id="h"><use transform="matrix(0.04248971193415638,0,0,0.04248971193415638,0,0)" xlink:href="#an"/><use transform="matrix(0.04248971193415638,0,0,0.04248971193415638,8.497942386831275,0)" xlink:href="#ao"/><use transform="matrix(0.04248971193415638,0,0,0.04248971193415638,16.99588477366255,0)" xlink:href="#an"/><use transform="matrix(0.04248971193415638,0,0,0.04248971193415638,25.493827160493822,0)" xlink:href="#ap"/></g><path fill="#333" d="M138-103L118 0H85l20-103-68-145h35l54 119 98-119h38" id="aq"/><path fill="#333" d="M151-220L108 0H75l42-220H32l6-28h203l-5 28h-85" id="ar"/><path fill="#333" d="M68-162c25-46 127-43 121 31C183-60 169 1 98 4 69 5 53-11 43-31L36 0H5l52-261h31zm88 36c2-27-9-43-34-43-55 0-70 51-70 103 0 29 15 45 43 46 52 0 58-58 61-106" id="as"/><path fill="#333" d="M111-194c62-3 86 47 72 106H45c-7 38 6 69 45 68 27-1 43-14 53-32l24 11C152-15 129 4 87 4 38 3 12-23 12-71c0-70 32-119 99-123zm44 81c14-66-71-72-95-28-4 8-8 17-11 28h106" id="at"/><g id="i"><use transform="matrix(0.04938271604938272,0,0,0.04938271604938272,0,0)" xlink:href="#aq"/><use transform="matrix(0.04938271604938272,0,0,0.04938271604938272,10.864197530864198,0)" xlink:href="#W"/><use transform="matrix(0.04938271604938272,0,0,0.04938271604938272,20.74074074074074,0)" xlink:href="#U"/><use transform="matrix(0.04938271604938272,0,0,0.04938271604938272,30.617283950617285,0)" xlink:href="#ar"/><use transform="matrix(0.04938271604938272,0,0,0.04938271604938272,40.098765432098766,0)" xlink:href="#U"/><use transform="matrix(0.04938271604938272,0,0,0.04938271604938272,49.97530864197531,0)" xlink:href="#as"/><use transform="matrix(0.04938271604938272,0,0,0.04938271604938272,59.851851851851855,0)" xlink:href="#at"/></g><path d="M63-220v92h138v28H63V0H30v-248h175v28H63" id="au"/><path d="M141-36C126-15 110 5 73 4 37 3 15-17 15-53c-1-64 63-63 125-63 3-35-9-54-41-54-24 1-41 7-42 31l-33-3c5-37 33-52 76-52 45 0 72 20 72 64v82c-1 20 7 32 28 27v20c-31 9-61-2-59-35zM48-53c0 20 12 33 32 33 41-3 63-29 60-74-43 2-92-5-92 41" id="av"/><path d="M9 0v-24l116-142H16v-24h144v24L44-24h123V0H9" id="aw"/><path d="M100-194c63 0 86 42 84 106H49c0 40 14 67 53 68 26 1 43-12 49-29l28 8c-11 28-37 45-77 45C44 4 14-33 15-96c1-61 26-98 85-98zm52 81c6-60-76-77-97-28-3 7-6 17-6 28h103" id="ax"/><path d="M114-163C36-179 61-72 57 0H25l-1-190h30c1 12-1 29 2 39 6-27 23-49 58-41v29" id="ay"/><g id="j"><use transform="matrix(0.05925925925925927,0,0,0.05925925925925927,0,0)" xlink:href="#au"/><use transform="matrix(0.05925925925925927,0,0,0.05925925925925927,12.97777777777778,0)" xlink:href="#av"/><use transform="matrix(0.05925925925925927,0,0,0.05925925925925927,24.829629629629633,0)" xlink:href="#aw"/><use transform="matrix(0.05925925925925927,0,0,0.05925925925925927,35.4962962962963,0)" xlink:href="#ax"/><use transform="matrix(0.05925925925925927,0,0,0.05925925925925927,47.348148148148155,0)" xlink:href="#ay"/></g><path d="M30 0v-248h33v221h125V0H30" id="az"/><path d="M100-194c62-1 85 37 85 99 1 63-27 99-86 99S16-35 15-95c0-66 28-99 85-99zM99-20c44 1 53-31 53-75 0-43-8-75-51-75s-53 32-53 75 10 74 51 75" id="aA"/><path d="M177-190C167-65 218 103 67 71c-23-6-38-20-44-43l32-5c15 47 100 32 89-28v-30C133-14 115 1 83 1 29 1 15-40 15-95c0-56 16-97 71-98 29-1 48 16 59 35 1-10 0-23 2-32h30zM94-22c36 0 50-32 50-73 0-42-14-75-50-75-39 0-46 34-46 75s6 73 46 73" id="aB"/><path d="M24-231v-30h32v30H24zM24 0v-190h32V0H24" id="aC"/><path d="M117-194c89-4 53 116 60 194h-32v-121c0-31-8-49-39-48C34-167 62-67 57 0H25l-1-190h30c1 10-1 24 2 32 11-22 29-35 61-36" id="aD"/><g id="k"><use transform="matrix(0.05925925925925927,0,0,0.05925925925925927,0,0)" xlink:href="#az"/><use transform="matrix(0.05925925925925927,0,0,0.05925925925925927,11.851851851851853,0)" xlink:href="#aA"/><use transform="matrix(0.05925925925925927,0,0,0.05925925925925927,23.703703703703706,0)" xlink:href="#aB"/><use transform="matrix(0.05925925925925927,0,0,0.05925925925925927,35.55555555555556,0)" xlink:href="#aC"/><use transform="matrix(0.05925925925925927,0,0,0.05925925925925927,40.23703703703704,0)" xlink:href="#aD"/></g><path d="M96-169c-40 0-48 33-48 73s9 75 48 75c24 0 41-14 43-38l32 2c-6 37-31 61-74 61-59 0-76-41-82-99-10-93 101-131 147-64 4 7 5 14 7 22l-32 3c-4-21-16-35-41-35" id="aE"/><path d="M85-194c31 0 48 13 60 33l-1-100h32l1 261h-30c-2-10 0-23-3-31C134-8 116 4 85 4 32 4 16-35 15-94c0-66 23-100 70-100zm9 24c-40 0-46 34-46 75 0 40 6 74 45 74 42 0 51-32 51-76 0-42-9-74-50-73" id="aF"/><path d="M135-143c-3-34-86-38-87 0 15 53 115 12 119 90S17 21 10-45l28-5c4 36 97 45 98 0-10-56-113-15-118-90-4-57 82-63 122-42 12 7 21 19 24 35" id="aG"/><path d="M59-47c-2 24 18 29 38 22v24C64 9 27 4 27-40v-127H5v-23h24l9-43h21v43h35v23H59v120" id="aH"/><g id="l"><use transform="matrix(0.05925925925925927,0,0,0.05925925925925927,0,0)" xlink:href="#aE"/><use transform="matrix(0.05925925925925927,0,0,0.05925925925925927,10.666666666666668,0)" xlink:href="#av"/><use transform="matrix(0.05925925925925927,0,0,0.05925925925925927,22.51851851851852,0)" xlink:href="#aF"/><use transform="matrix(0.05925925925925927,0,0,0.05925925925925927,34.370370370370374,0)" xlink:href="#av"/><use transform="matrix(0.05925925925925927,0,0,0.05925925925925927,46.22222222222223,0)" xlink:href="#aG"/><use transform="matrix(0.05925925925925927,0,0,0.05925925925925927,56.8888888888889,0)" xlink:href="#aH"/><use transform="matrix(0.05925925925925927,0,0,0.05925925925925927,62.814814814814824,0)" xlink:href="#ay"/><use transform="matrix(0.05925925925925927,0,0,0.05925925925925927,69.86666666666667,0)" xlink:href="#aA"/></g><path d="M205 0l-28-72H64L36 0H1l101-248h38L239 0h-34zm-38-99l-47-123c-12 45-31 82-46 123h93" id="aI"/><g id="m"><use transform="matrix(0.05925925925925927,0,0,0.05925925925925927,0,0)" xlink:href="#aI"/><use transform="matrix(0.05925925925925927,0,0,0.05925925925925927,14.222222222222225,0)" xlink:href="#aG"/><use transform="matrix(0.05925925925925927,0,0,0.05925925925925927,24.888888888888893,0)" xlink:href="#aG"/><use transform="matrix(0.05925925925925927,0,0,0.05925925925925927,35.55555555555556,0)" xlink:href="#aC"/><use transform="matrix(0.05925925925925927,0,0,0.05925925925925927,40.23703703703704,0)" xlink:href="#aG"/><use transform="matrix(0.05925925925925927,0,0,0.05925925925925927,50.90370370370371,0)" xlink:href="#aH"/><use transform="matrix(0.05925925925925927,0,0,0.05925925925925927,56.829629629629636,0)" xlink:href="#aC"/><use transform="matrix(0.05925925925925927,0,0,0.05925925925925927,61.51111111111112,0)" xlink:href="#ay"/></g><path d="M84 4C-5 8 30-112 23-190h32v120c0 31 7 50 39 49 72-2 45-101 50-169h31l1 190h-30c-1-10 1-25-2-33-11 22-28 36-60 37" id="aJ"/><path d="M24 0v-261h32V0H24" id="aK"/><g id="n"><use transform="matrix(0.05925925925925927,0,0,0.05925925925925927,0,0)" xlink:href="#av"/><use transform="matrix(0.05925925925925927,0,0,0.05925925925925927,11.851851851851853,0)" xlink:href="#aJ"/><use transform="matrix(0.05925925925925927,0,0,0.05925925925925927,23.703703703703706,0)" xlink:href="#aK"/><use transform="matrix(0.05925925925925927,0,0,0.05925925925925927,28.385185185185186,0)" xlink:href="#av"/><use transform="matrix(0.05925925925925927,0,0,0.05925925925925927,40.23703703703704,0)" xlink:href="#aG"/></g><g id="o"><use transform="matrix(0.05925925925925927,0,0,0.05925925925925927,0,0)" xlink:href="#aI"/><use transform="matrix(0.05925925925925927,0,0,0.05925925925925927,14.222222222222225,0)" xlink:href="#aK"/><use transform="matrix(0.05925925925925927,0,0,0.05925925925925927,18.903703703703705,0)" xlink:href="#aH"/><use transform="matrix(0.05925925925925927,0,0,0.05925925925925927,24.829629629629633,0)" xlink:href="#ax"/><use transform="matrix(0.05925925925925927,0,0,0.05925925925925927,36.681481481481484,0)" xlink:href="#ay"/><use transform="matrix(0.05925925925925927,0,0,0.05925925925925927,43.733333333333334,0)" xlink:href="#av"/><use transform="matrix(0.05925925925925927,0,0,0.05925925925925927,55.58518518518519,0)" xlink:href="#ay"/></g><g id="p"><use transform="matrix(0.05925925925925927,0,0,0.05925925925925927,0,0)" xlink:href="#aF"/><use transform="matrix(0.05925925925925927,0,0,0.05925925925925927,11.851851851851853,0)" xlink:href="#av"/><use transform="matrix(0.05925925925925927,0,0,0.05925925925925927,23.703703703703706,0)" xlink:href="#aF"/><use transform="matrix(0.05925925925925927,0,0,0.05925925925925927,35.55555555555556,0)" xlink:href="#aA"/><use transform="matrix(0.05925925925925927,0,0,0.05925925925925927,47.40740740740741,0)" xlink:href="#aG"/></g><path d="M137 0h-34L2-248h35l83 218 83-218h36" id="aL"/><g id="q"><use transform="matrix(0.05,0,0,0.05,0,0)" xlink:href="#aL"/><use transform="matrix(0.05,0,0,0.05,10.65,0)" xlink:href="#av"/><use transform="matrix(0.05,0,0,0.05,20.65,0)" xlink:href="#aK"/><use transform="matrix(0.05,0,0,0.05,24.599999999999998,0)" xlink:href="#aC"/><use transform="matrix(0.05,0,0,0.05,28.549999999999997,0)" xlink:href="#aF"/><use transform="matrix(0.05,0,0,0.05,38.55,0)" xlink:href="#av"/><use transform="matrix(0.05,0,0,0.05,48.55,0)" xlink:href="#ay"/></g><path d="M185-189c-5-48-123-54-124 2 14 75 158 14 163 119 3 78-121 87-175 55-17-10-28-26-33-46l33-7c5 56 141 63 141-1 0-78-155-14-162-118-5-82 145-84 179-34 5 7 8 16 11 25" id="aM"/><path d="M106-169C34-169 62-67 57 0H25v-261h32l-1 103c12-21 28-36 61-36 89 0 53 116 60 194h-32v-121c2-32-8-49-39-48" id="aN"/><g id="r"><use transform="matrix(0.05,0,0,0.05,0,0)" xlink:href="#aM"/><use transform="matrix(0.05,0,0,0.05,12,0)" xlink:href="#ax"/><use transform="matrix(0.05,0,0,0.05,22,0)" xlink:href="#aD"/><use transform="matrix(0.05,0,0,0.05,32,0)" xlink:href="#aN"/><use transform="matrix(0.05,0,0,0.05,42,0)" xlink:href="#av"/></g><path d="M30 0v-248h187v28H63v79h144v27H63v87h162V0H30" id="aO"/><path d="M141 0L90-78 38 0H4l68-98-65-92h35l48 74 47-74h35l-64 92 68 98h-35" id="aP"/><path d="M115-194c53 0 69 39 70 98 0 66-23 100-70 100C84 3 66-7 56-30L54 0H23l1-261h32v101c10-23 28-34 59-34zm-8 174c40 0 45-34 45-75 0-40-5-75-45-74-42 0-51 32-51 76 0 43 10 73 51 73" id="aQ"/><g id="s"><use transform="matrix(0.05,0,0,0.05,0,0)" xlink:href="#aO"/><use transform="matrix(0.05,0,0,0.05,12,0)" xlink:href="#aP"/><use transform="matrix(0.05,0,0,0.05,21,0)" xlink:href="#aC"/><use transform="matrix(0.05,0,0,0.05,24.95,0)" xlink:href="#aQ"/><use transform="matrix(0.05,0,0,0.05,34.95,0)" xlink:href="#aC"/><use transform="matrix(0.05,0,0,0.05,38.900000000000006,0)" xlink:href="#ay"/></g><g id="t"><use transform="matrix(0.05,0,0,0.05,0,0)" xlink:href="#ax"/><use transform="matrix(0.05,0,0,0.05,10,0)" xlink:href="#ay"/><use transform="matrix(0.05,0,0,0.05,15.949999999999998,0)" xlink:href="#ay"/><use transform="matrix(0.05,0,0,0.05,21.9,0)" xlink:href="#aA"/></g><g id="u"><use transform="matrix(0.05,0,0,0.05,0,0)" xlink:href="#aF"/><use transform="matrix(0.05,0,0,0.05,10,0)" xlink:href="#ax"/></g><g id="v"><use transform="matrix(0.05,0,0,0.05,0,0)" xlink:href="#aK"/><use transform="matrix(0.05,0,0,0.05,3.95,0)" xlink:href="#aA"/><use transform="matrix(0.05,0,0,0.05,13.949999999999998,0)" xlink:href="#aB"/><use transform="matrix(0.05,0,0,0.05,23.95,0)" xlink:href="#aC"/><use transform="matrix(0.05,0,0,0.05,27.899999999999995,0)" xlink:href="#aD"/></g><path fill="#333" d="M18-100v-36l175-74v27L42-118l151 64v27" id="aR"/><path fill="#333" d="M24-231v-30h32v30H24zM24 0v-190h32V0H24" id="aS"/><path fill="#333" d="M117-194c89-4 53 116 60 194h-32v-121c0-31-8-49-39-48C34-167 62-67 57 0H25l-1-190h30c1 10-1 24 2 32 11-22 29-35 61-36" id="aT"/><path fill="#333" d="M96-169c-40 0-48 33-48 73s9 75 48 75c24 0 41-14 43-38l32 2c-6 37-31 61-74 61-59 0-76-41-82-99-10-93 101-131 147-64 4 7 5 14 7 22l-32 3c-4-21-16-35-41-35" id="aU"/><path fill="#333" d="M24 0v-261h32V0H24" id="aV"/><path fill="#333" d="M84 4C-5 8 30-112 23-190h32v120c0 31 7 50 39 49 72-2 45-101 50-169h31l1 190h-30c-1-10 1-25-2-33-11 22-28 36-60 37" id="aW"/><path fill="#333" d="M114-163C36-179 61-72 57 0H25l-1-190h30c1 12-1 29 2 39 6-27 23-49 58-41v29" id="aX"/><path fill="#333" d="M18-27v-27l151-64-151-65v-27l175 74v36" id="aY"/><g id="w"><use transform="matrix(0.05,0,0,0.05,0,0)" xlink:href="#aR"/><use transform="matrix(0.05,0,0,0.05,10.5,0)" xlink:href="#aR"/><use transform="matrix(0.05,0,0,0.05,21,0)" xlink:href="#aS"/><use transform="matrix(0.05,0,0,0.05,24.95,0)" xlink:href="#aT"/><use transform="matrix(0.05,0,0,0.05,34.95,0)" xlink:href="#aU"/><use transform="matrix(0.05,0,0,0.05,43.95,0)" xlink:href="#aV"/><use transform="matrix(0.05,0,0,0.05,47.900000000000006,0)" xlink:href="#aW"/><use transform="matrix(0.05,0,0,0.05,57.900000000000006,0)" xlink:href="#aS"/><use transform="matrix(0.05,0,0,0.05,61.85,0)" xlink:href="#aX"/><use transform="matrix(0.05,0,0,0.05,67.80000000000001,0)" xlink:href="#aY"/><use transform="matrix(0.05,0,0,0.05,78.30000000000001,0)" xlink:href="#aY"/></g><path fill="#333" d="M100-194c63 0 86 42 84 106H49c0 40 14 67 53 68 26 1 43-12 49-29l28 8c-11 28-37 45-77 45C44 4 14-33 15-96c1-61 26-98 85-98zm52 81c6-60-76-77-97-28-3 7-6 17-6 28h103" id="aZ"/><path fill="#333" d="M141 0L90-78 38 0H4l68-98-65-92h35l48 74 47-74h35l-64 92 68 98h-35" id="ba"/><path fill="#333" d="M59-47c-2 24 18 29 38 22v24C64 9 27 4 27-40v-127H5v-23h24l9-43h21v43h35v23H59v120" id="bb"/><path fill="#333" d="M85-194c31 0 48 13 60 33l-1-100h32l1 261h-30c-2-10 0-23-3-31C134-8 116 4 85 4 32 4 16-35 15-94c0-66 23-100 70-100zm9 24c-40 0-46 34-46 75 0 40 6 74 45 74 42 0 51-32 51-76 0-42-9-74-50-73" id="bc"/><g id="x"><use transform="matrix(0.05,0,0,0.05,0,0)" xlink:href="#aR"/><use transform="matrix(0.05,0,0,0.05,10.5,0)" xlink:href="#aR"/><use transform="matrix(0.05,0,0,0.05,21,0)" xlink:href="#aZ"/><use transform="matrix(0.05,0,0,0.05,31,0)" xlink:href="#ba"/><use transform="matrix(0.05,0,0,0.05,40,0)" xlink:href="#bb"/><use transform="matrix(0.05,0,0,0.05,45,0)" xlink:href="#aZ"/><use transform="matrix(0.05,0,0,0.05,55,0)" xlink:href="#aT"/><use transform="matrix(0.05,0,0,0.05,65,0)" xlink:href="#bc"/><use transform="matrix(0.05,0,0,0.05,75,0)" xlink:href="#aZ"/><use transform="matrix(0.05,0,0,0.05,85,0)" xlink:href="#aX"/><use transform="matrix(0.05,0,0,0.05,90.95,0)" xlink:href="#aY"/><use transform="matrix(0.05,0,0,0.05,101.45,0)" xlink:href="#aY"/></g><path d="M101-234c-31-9-42 10-38 44h38v23H63V0H32v-167H5v-23h27c-7-52 17-82 69-68v24" id="bd"/><g id="y"><use transform="matrix(0.05,0,0,0.05,0,0)" xlink:href="#aL"/><use transform="matrix(0.05,0,0,0.05,11,0)" xlink:href="#ax"/><use transform="matrix(0.05,0,0,0.05,21,0)" xlink:href="#ay"/><use transform="matrix(0.05,0,0,0.05,26.950000000000003,0)" xlink:href="#aC"/><use transform="matrix(0.05,0,0,0.05,30.899999999999995,0)" xlink:href="#bd"/><use transform="matrix(0.05,0,0,0.05,35.9,0)" xlink:href="#aC"/><use transform="matrix(0.05,0,0,0.05,39.85,0)" xlink:href="#aE"/><use transform="matrix(0.05,0,0,0.05,48.85,0)" xlink:href="#av"/><use transform="matrix(0.05,0,0,0.05,58.85,0)" xlink:href="#ay"/></g><g id="z"><use transform="matrix(0.05,0,0,0.05,0,0)" xlink:href="#aG"/><use transform="matrix(0.05,0,0,0.05,9,0)" xlink:href="#ax"/></g><path d="M24-231v-30h32v30H24zM-9 49c24 4 33-6 33-30v-209h32V24c2 40-23 58-65 49V49" id="be"/><path d="M141-36C126-15 110 5 73 4 37 3 15-17 15-53c-1-64 63-63 125-63 3-35-9-54-41-54-24 1-41 7-42 31l-33-3c5-37 33-52 76-52 45 0 72 20 72 64v82c-1 20 7 32 28 27v20c-31 9-61-2-59-35zM48-53c0 20 12 33 32 33 41-3 63-29 60-74-43 2-92-5-92 41zm25-158c8-23 27-35 38-54h36v5l-58 49H73" id="bf"/><g id="A"><use transform="matrix(0.05,0,0,0.05,0,0)" xlink:href="#be"/><use transform="matrix(0.05,0,0,0.05,3.95,0)" xlink:href="#bf"/></g><g id="B"><use transform="matrix(0.05,0,0,0.05,0,0)" xlink:href="#ax"/><use transform="matrix(0.05,0,0,0.05,10,0)" xlink:href="#aP"/><use transform="matrix(0.05,0,0,0.05,19,0)" xlink:href="#aC"/><use transform="matrix(0.05,0,0,0.05,22.95,0)" xlink:href="#aG"/><use transform="matrix(0.05,0,0,0.05,31.950000000000003,0)" xlink:href="#aH"/><use transform="matrix(0.05,0,0,0.05,36.95,0)" xlink:href="#ax"/></g><g id="C"><use transform="matrix(0.05,0,0,0.05,0,0)" xlink:href="#aJ"/><use transform="matrix(0.05,0,0,0.05,10,0)" xlink:href="#aG"/><use transform="matrix(0.05,0,0,0.05,19,0)" xlink:href="#aJ"/><use transform="matrix(0.05,0,0,0.05,29,0)" xlink:href="#bf"/><use transform="matrix(0.05,0,0,0.05,39,0)" xlink:href="#ay"/><use transform="matrix(0.05,0,0,0.05,44.95,0)" xlink:href="#aC"/><use transform="matrix(0.05,0,0,0.05,48.900000000000006,0)" xlink:href="#aA"/></g><g id="D"><use transform="matrix(0.05,0,0,0.05,0,0)" xlink:href="#aE"/><use transform="matrix(0.05,0,0,0.05,9,0)" xlink:href="#av"/><use transform="matrix(0.05,0,0,0.05,19,0)" xlink:href="#aF"/><use transform="matrix(0.05,0,0,0.05,29,0)" xlink:href="#av"/><use transform="matrix(0.05,0,0,0.05,39,0)" xlink:href="#aG"/><use transform="matrix(0.05,0,0,0.05,48,0)" xlink:href="#aH"/><use transform="matrix(0.05,0,0,0.05,53,0)" xlink:href="#ay"/><use transform="matrix(0.05,0,0,0.05,58.95,0)" xlink:href="#av"/><use transform="matrix(0.05,0,0,0.05,68.95,0)" xlink:href="#aF"/><use transform="matrix(0.05,0,0,0.05,78.95,0)" xlink:href="#aA"/></g><path d="M233-177c-1 41-23 64-60 70L243 0h-38l-65-103H63V0H30v-248c88 3 205-21 203 71zM63-129c60-2 137 13 137-47 0-61-80-42-137-45v92" id="bg"/><path d="M115-194c55 1 70 41 70 98S169 2 115 4C84 4 66-9 55-30l1 105H24l-1-265h31l2 30c10-21 28-34 59-34zm-8 174c40 0 45-34 45-75s-6-73-45-74c-42 0-51 32-51 76 0 43 10 73 51 73" id="bh"/><g id="E"><use transform="matrix(0.05925925925925927,0,0,0.05925925925925927,0,0)" xlink:href="#bg"/><use transform="matrix(0.05925925925925927,0,0,0.05925925925925927,15.34814814814815,0)" xlink:href="#ax"/><use transform="matrix(0.05925925925925927,0,0,0.05925925925925927,27.200000000000003,0)" xlink:href="#aG"/><use transform="matrix(0.05925925925925927,0,0,0.05925925925925927,37.866666666666674,0)" xlink:href="#bh"/><use transform="matrix(0.05925925925925927,0,0,0.05925925925925927,49.71851851851853,0)" xlink:href="#aA"/><use transform="matrix(0.05925925925925927,0,0,0.05925925925925927,61.57037037037038,0)" xlink:href="#aD"/><use transform="matrix(0.05925925925925927,0,0,0.05925925925925927,73.42222222222223,0)" xlink:href="#aF"/><use transform="matrix(0.05925925925925927,0,0,0.05925925925925927,85.27407407407408,0)" xlink:href="#ax"/><use transform="matrix(0.05925925925925927,0,0,0.05925925925925927,97.12592592592593,0)" xlink:href="#ay"/></g><path d="M145-31C134-9 116 4 85 4 32 4 16-35 15-94c0-59 17-99 70-100 32-1 48 14 60 33 0-11-1-24 2-32h30l-1 268h-32zM93-21c41 0 51-33 51-76s-8-73-50-73c-40 0-46 35-46 75s5 74 45 74" id="bi"/><g id="F"><use transform="matrix(0.05925925925925927,0,0,0.05925925925925927,0,0)" xlink:href="#bi"/><use transform="matrix(0.05925925925925927,0,0,0.05925925925925927,11.851851851851853,0)" xlink:href="#aJ"/><use transform="matrix(0.05925925925925927,0,0,0.05925925925925927,23.703703703703706,0)" xlink:href="#ax"/><use transform="matrix(0.05925925925925927,0,0,0.05925925925925927,35.55555555555556,0)" xlink:href="#aG"/><use transform="matrix(0.05925925925925927,0,0,0.05925925925925927,46.22222222222223,0)" xlink:href="#aH"/><use transform="matrix(0.05925925925925927,0,0,0.05925925925925927,52.14814814814815,0)" xlink:href="#aC"/><use transform="matrix(0.05925925925925927,0,0,0.05925925925925927,56.829629629629636,0)" xlink:href="#aA"/><use transform="matrix(0.05925925925925927,0,0,0.05925925925925927,68.68148148148148,0)" xlink:href="#aD"/><use transform="matrix(0.05925925925925927,0,0,0.05925925925925927,80.53333333333333,0)" xlink:href="#bf"/><use transform="matrix(0.05925925925925927,0,0,0.05925925925925927,92.38518518518518,0)" xlink:href="#ay"/><use transform="matrix(0.05925925925925927,0,0,0.05925925925925927,99.43703703703703,0)" xlink:href="#aC"/><use transform="matrix(0.05925925925925927,0,0,0.05925925925925927,104.11851851851851,0)" xlink:href="#aA"/></g><use transform="matrix(0.05,0,0,0.05,0,0)" xlink:href="#aA" id="G"/><g id="H"><use transform="matrix(0.05,0,0,0.05,0,0)" xlink:href="#av"/><use transform="matrix(0.05,0,0,0.05,10,0)" xlink:href="#aK"/><use transform="matrix(0.05,0,0,0.05,13.949999999999998,0)" xlink:href="#aJ"/><use transform="matrix(0.05,0,0,0.05,23.95,0)" xlink:href="#aD"/><use transform="matrix(0.05,0,0,0.05,33.95,0)" xlink:href="#aA"/></g><g id="I"><use transform="matrix(0.05,0,0,0.05,0,0)" xlink:href="#av"/><use transform="matrix(0.05,0,0,0.05,10,0)" xlink:href="#aE"/><use transform="matrix(0.05,0,0,0.05,19,0)" xlink:href="#ax"/><use transform="matrix(0.05,0,0,0.05,29,0)" xlink:href="#ay"/><use transform="matrix(0.05,0,0,0.05,34.95,0)" xlink:href="#aH"/><use transform="matrix(0.05,0,0,0.05,39.95,0)" xlink:href="#aA"/><use transform="matrix(0.05,0,0,0.05,49.95,0)" xlink:href="#aJ"/></g><path d="M110-160c48 1 74 30 74 79 0 53-28 85-80 85-65 0-83-55-86-122-5-90 50-162 133-122 14 7 22 21 27 39l-31 6c-5-40-67-38-82-6-9 19-15 44-15 74 11-20 30-34 60-33zm-7 138c34 0 49-23 49-58s-16-56-50-56c-29 0-50 16-49 49 1 36 15 65 50 65" id="bj"/><path d="M101-251c68 0 85 55 85 127S166 4 100 4C33 4 14-52 14-124c0-73 17-127 87-127zm-1 229c47 0 54-49 54-102s-4-102-53-102c-51 0-55 48-55 102 0 53 5 102 54 102" id="bk"/><path d="M252-156c43 0 55 33 55 80 0 46-13 78-56 78-42 0-55-33-55-78 0-48 12-80 56-80zM93 0H65l162-248h28zM13-171c-1-47 13-79 56-79s55 33 55 79-13 79-55 79c-43 0-56-33-56-79zM251-17c28 0 30-29 30-59 0-31-1-60-29-60-29 0-31 29-31 60 0 29 2 59 30 59zM69-112c27 0 28-30 29-59 0-31-1-60-29-60-29 0-30 30-30 60s2 59 30 59" id="bl"/><g id="J"><use transform="matrix(0.05,0,0,0.05,0,0)" xlink:href="#bj"/><use transform="matrix(0.05,0,0,0.05,10,0)" xlink:href="#bk"/><use transform="matrix(0.05,0,0,0.05,20,0)" xlink:href="#bl"/></g><g id="K"><use transform="matrix(0.05,0,0,0.05,0,0)" xlink:href="#aF"/><use transform="matrix(0.05,0,0,0.05,10,0)" xlink:href="#av"/><use transform="matrix(0.05,0,0,0.05,20,0)" xlink:href="#aG"/></g><path d="M100-194c62-1 85 37 85 99 1 63-27 99-86 99S16-35 15-95c0-66 28-99 85-99zM99-20c44 1 53-31 53-75 0-43-8-75-51-75s-53 32-53 75 10 74 51 75zm66-238c-3 23-9 48-36 47-26-1-65-44-74 0H39c4-23 8-48 36-47s64 44 74 0h16" id="bm"/><g id="L"><use transform="matrix(0.05,0,0,0.05,0,0)" xlink:href="#bi"/><use transform="matrix(0.05,0,0,0.05,10,0)" xlink:href="#aJ"/><use transform="matrix(0.05,0,0,0.05,20,0)" xlink:href="#ax"/><use transform="matrix(0.05,0,0,0.05,30,0)" xlink:href="#aG"/><use transform="matrix(0.05,0,0,0.05,39,0)" xlink:href="#aH"/><use transform="matrix(0.05,0,0,0.05,44,0)" xlink:href="#bm"/><use transform="matrix(0.05,0,0,0.05,54,0)" xlink:href="#ax"/><use transform="matrix(0.05,0,0,0.05,64,0)" xlink:href="#aG"/></g></defs></g></svg>